<?xml version="1.0" standalone="no"?>
<!DOCTYPE svg PUBLIC "-//W3C//DTD SVG 20010904//EN"
 "http://www.w3.org/TR/2001/REC-SVG-20010904/DTD/svg10.dtd">
<svg version="1.0" xmlns="http://www.w3.org/2000/svg"
 width="1080.000000pt" height="1080.000000pt" viewBox="0 0 1080.000000 1080.000000"
 preserveAspectRatio="xMidYMid meet">
<metadata>
Created by potrace 1.11, written by Peter Selinger 2001-2013
</metadata>
<g transform="translate(0.000000,1080.000000) scale(0.100000,-0.100000)"
fill="#000000" stroke="none">
<path d="M5767 10114 c-1 -1 -55 -4 -120 -8 -64 -4 -123 -8 -130 -11 -6 -2
-41 -6 -77 -10 -118 -11 -373 -59 -510 -96 -787 -211 -1456 -631 -1906 -1195
-66 -83 -234 -326 -234 -339 0 -3 -11 -23 -24 -44 -114 -180 -277 -583 -331
-821 -24 -102 -45 -204 -50 -240 -3 -25 -8 -52 -10 -60 -2 -8 -7 -39 -10 -69
-4 -30 -8 -61 -10 -70 -24 -128 -24 -648 -1 -802 3 -13 7 -46 11 -74 13 -98
17 -122 41 -245 100 -495 307 -993 603 -1445 36 -55 69 -104 73 -110 5 -5 45
-60 91 -121 84 -113 130 -173 157 -202 9 -9 44 -51 79 -92 88 -104 457 -467
482 -475 11 -4 25 -2 32 3 7 5 62 35 122 67 61 32 166 88 235 125 69 37 170
91 225 120 55 29 105 56 110 60 6 4 64 35 130 70 265 138 353 226 391 389 13
54 12 207 -1 276 -8 44 -40 186 -50 222 -14 55 -29 118 -70 298 -25 110 -47
209 -49 220 -2 11 -23 101 -46 200 -78 338 -89 408 -94 567 -8 229 37 398 206
782 39 89 86 202 103 251 l33 90 103 73 c521 363 1149 657 1864 871 242 72
590 162 715 185 110 20 366 77 405 91 160 54 174 137 63 370 -63 133 -158 257
-327 425 -356 355 -663 534 -1114 649 -133 34 -340 77 -416 85 -30 4 -64 8
-75 11 -12 2 -52 7 -91 10 -38 3 -95 8 -125 11 -50 5 -398 12 -403 8z"/>
<path d="M6875 7211 c-6 -5 -57 -34 -115 -64 -282 -147 -831 -444 -879 -475
-155 -101 -221 -212 -226 -382 -4 -111 7 -190 55 -385 47 -197 80 -338 120
-520 30 -137 44 -198 76 -332 76 -319 88 -547 38 -759 -21 -90 -53 -191 -80
-250 -13 -29 -24 -56 -24 -59 0 -3 -8 -25 -19 -48 -69 -153 -128 -295 -156
-372 -37 -102 -21 -86 -266 -250 -257 -171 -589 -348 -919 -489 -107 -46 -217
-91 -245 -101 -27 -10 -64 -23 -80 -31 -62 -27 -485 -164 -640 -208 -202 -57
-435 -113 -685 -166 -311 -65 -354 -79 -393 -123 -41 -47 -35 -128 19 -255 65
-152 164 -291 328 -461 150 -154 356 -320 525 -425 216 -133 559 -249 911
-310 114 -20 144 -25 215 -31 33 -4 71 -8 85 -10 161 -27 570 -24 810 5 140
17 150 19 350 56 19 3 230 57 305 77 169 46 429 148 630 248 88 44 167 84 175
89 8 5 56 34 105 63 676 403 1168 1013 1402 1737 66 204 119 437 138 605 3 28
8 59 10 70 23 113 24 663 1 793 -3 15 -8 50 -22 152 -71 507 -304 1111 -613
1585 -43 66 -180 262 -201 288 -28 34 -78 97 -100 126 -14 18 -30 38 -35 44
-6 7 -42 48 -79 92 -102 119 -475 485 -495 485 -9 0 -21 -4 -26 -9z"/>
</g>
</svg>
